<svg class="svg-icon" style="width: 1em; height: 1em;vertical-align: middle;fill: currentColor;overflow: hidden;" viewBox="0 0 1024 1024" version="1.1" xmlns="http://www.w3.org/2000/svg"><path d="M981.21 190.81c-0.02-0.73-0.16-1.44-0.22-2.17-0.28-3.49-0.95-6.84-2.02-10.04-0.14-0.44-0.11-0.89-0.27-1.33-0.08-0.22-0.24-0.38-0.33-0.6-1.4-3.61-3.27-6.93-5.54-9.99-0.49-0.66-1.02-1.24-1.54-1.87-2.26-2.7-4.77-5.16-7.62-7.24-0.29-0.21-0.52-0.47-0.82-0.67-3.09-2.13-6.52-3.74-10.13-5-0.82-0.29-1.62-0.53-2.47-0.77-3.71-1.05-7.55-1.8-11.6-1.8H85.33c-4.05 0-7.89 0.74-11.6 1.8-0.84 0.24-1.65 0.48-2.47 0.77-3.61 1.27-7.04 2.87-10.13 5-0.29 0.2-0.53 0.46-0.82 0.67-2.85 2.08-5.36 4.53-7.62 7.24-0.52 0.63-1.06 1.21-1.54 1.87-2.27 3.06-4.14 6.38-5.54 9.99-0.08 0.22-0.25 0.38-0.33 0.6-0.16 0.43-0.12 0.89-0.27 1.33-1.07 3.2-1.74 6.55-2.02 10.04-0.06 0.73-0.2 1.44-0.22 2.17-0.01 0.4-0.12 0.78-0.12 1.19v640c0 23.56 19.1 42.67 42.67 42.67h853.33c23.56 0 42.67-19.1 42.67-42.67V192c0.01-0.41-0.1-0.78-0.11-1.19z m-158.63 43.86L512 498.67l-310.58-264h621.16zM128 789.33V284.25l356.38 302.92A42.56 42.56 0 0 0 512 597.34c9.83 0 19.67-3.4 27.62-10.17L896 284.25v505.09H128z" fill="#2F3CF4" /></svg>